# xmcd
#
# Track frame offsets:
#   150
#   24512
#   49227
#   76324
#   96593
#   124493
#   153019
#   178723
#   204812
#   220723
#
# Disc length: 3437 seconds
#
# Revision: 0
# Processed by: cddbd v1.5.2PL0 Copyright (c) Steve Scherf et al.
# Submitted via: GXTranscoder 2.0.1939
#
DISCID=800d6b0a
DTITLE=Sedat Ucan - Yüceler Yücesi
DYEAR=2006
DGENRE=Soundtrack
TTITLE0=Yüceler Yücesi
TTITLE1=Ravza
TTITLE2=Ben sana asik
TTITLE3=Dervis canlar
TTITLE4=Kanayan yara filistin
TTITLE5=Derdimin dermani
TTITLE6=Özünde islam
TTITLE7=Iman ettim
TTITLE8=Aldanmayin
TTITLE9=Seni cok seviyorum
EXTD=
EXTT0=
EXTT1=
EXTT2=
EXTT3=
EXTT4=
EXTT5=
EXTT6=
EXTT7=
EXTT8=
EXTT9=
PLAYORDER=
